<?xml version="1.0" encoding="UTF-8"?>
<svg width="150px" height="150px" viewBox="0 0 150 150" version="1.1" xmlns="http://www.w3.org/2000/svg" xmlns:xlink="http://www.w3.org/1999/xlink">
    <!-- Generator: Sketch 48.2 (47327) - http://www.bohemiancoding.com/sketch -->
    <title>liquid-roofing</title>
    <desc>Created with Sketch.</desc>
    <defs></defs>
    <g id="Page-1" stroke="none" stroke-width="1" fill="none" fill-rule="evenodd">
        <g id="liquid-roofing">
            <rect id="Rectangle-3" fill="#333333" x="0" y="0" width="150" height="150" rx="75"></rect>
            <g id="icon" transform="translate(30.000000, 30.000000)" fill="#FFFFFF">
                <g id="Icon">
                    <g id="floor-block" transform="translate(33.567568, 33.567568)">
                        <rect id="Rectangle-2" transform="translate(28.190935, 28.224104) rotate(-315.000000) translate(-28.190935, -28.224104) " x="12.6987303" y="4.46479511" width="30.9844087" height="47.5186181"></rect>
                    </g>
                    <g id="paint-roller" transform="translate(34.054054, 34.054054) rotate(-180.000000) translate(-34.054054, -34.054054) translate(0.000000, 0.000000)" fill-rule="nonzero">
                        <path d="M15.0541941,51.3389326 L51.3389326,15.0541941 C52.7985565,13.5945702 52.7985565,11.227094 51.3389326,9.76651085 L48.06111,6.48849638 L45.9463053,4.37369166 L42.6673316,1.09471793 C41.2077077,-0.364905976 38.8402314,-0.364905976 37.3796483,1.09471793 L1.09471793,37.3796483 C-0.364905976,38.8392722 -0.364905976,41.2067484 1.09471793,42.6673316 L9.766319,51.3389326 C11.227094,52.7987484 13.5934191,52.7987484 15.0541941,51.3389326 Z" id="Shape"></path>
                        <rect id="Rectangle-path" transform="translate(48.807888, 3.625209) rotate(45.000000) translate(-48.807888, -3.625209) " x="47.3124977" y="2.67362333" width="2.99078061" height="1.9031717"></rect>
                        <path d="M66.4240152,59.1776962 L49.0384134,41.7920944 L41.7920944,49.0384134 L59.1776962,66.4240152 C61.1787316,68.4248588 64.4231717,68.4248588 66.4240152,66.4240152 C68.4248588,64.4231717 68.4248588,61.1785398 66.4240152,59.1776962 Z" id="Shape"></path>
                        <path d="M44.3117107,42.1967141 L41.3097739,39.1947773 C39.0710316,36.9562269 34.8776825,37.5062718 31.9622718,40.4216825 L14.9667088,57.4182048 C13.2171938,59.1677198 10.3716178,59.1677198 8.62210278,57.4182048 L6.04953483,54.8456368 C4.53868595,53.334788 4.33934983,51.0087522 5.4384804,49.275161 L3.29317092,47.1298515 C1.04560335,50.0590758 1.25491587,54.281011 3.93453826,56.9615927 L6.5071062,59.5341606 C9.42251694,62.4495714 14.1661028,62.4495714 17.0815135,59.5341606 L34.0770765,42.5385976 C35.9463083,40.6693658 38.2744545,40.3913696 39.1947773,41.3116924 L42.1967141,44.3136292 L44.3117107,42.1967141 Z" id="Shape"></path>
                    </g>
                </g>
            </g>
        </g>
    </g>
</svg>