<?xml version="1.0" encoding="UTF-8"?>
<svg width="752px" height="185px" viewBox="0 0 752 185" version="1.1" xmlns="http://www.w3.org/2000/svg" xmlns:xlink="http://www.w3.org/1999/xlink">
    <!-- Generator: Sketch 48.2 (47327) - http://www.bohemiancoding.com/sketch -->
    <title>Group</title>
    <desc>Created with Sketch.</desc>
    <defs></defs>
    <g id="v10" stroke="none" stroke-width="1" fill="none" fill-rule="evenodd" transform="translate(-73.000000, -158.000000)">
        <g id="Group" transform="translate(73.000000, 158.000000)">
            <g id="Icon" fill="#656565">
                <g id="floor-block" transform="translate(69.000000, 69.000000)">
                    <rect id="Rectangle-2" transform="translate(57.948032, 58.016214) rotate(-315.000000) translate(-57.948032, -58.016214) " x="26.1029455" y="9.17763439" width="63.6901735" height="97.6771594"></rect>
                </g>
                <g id="paint-roller" transform="translate(70.000000, 70.000000) rotate(-180.000000) translate(-70.000000, -70.000000) translate(0.000000, 0.000000)" fill-rule="nonzero">
                    <path d="M30.9447324,105.530028 L105.530028,30.9447324 C108.530366,27.9443944 108.530366,23.0779155 105.530028,20.0756056 L98.7922817,13.3374648 L94.4451831,8.9903662 L87.7050704,2.25025352 C84.7047324,-0.750084507 79.8382535,-0.750084507 76.8359437,2.25025352 L2.25025352,76.8359437 C-0.750084507,79.8362817 -0.750084507,84.7027606 2.25025352,87.7050704 L20.0752113,105.530028 C23.0779155,108.530761 27.9420282,108.530761 30.9447324,105.530028 Z" id="Shape"></path>
                    <rect id="Rectangle-path" transform="translate(100.327325, 7.451819) rotate(45.000000) translate(-100.327325, -7.451819) " x="97.2534674" y="5.49578129" width="6.14771569" height="3.91207516"></rect>
                    <path d="M136.538254,121.643042 L100.801183,85.9059718 L85.9059718,100.801183 L121.643042,136.538254 C125.756282,140.651099 132.425408,140.651099 136.538254,136.538254 C140.651099,132.425408 140.651099,125.755887 136.538254,121.643042 Z" id="Shape"></path>
                    <path d="M91.0851831,86.7376901 L84.9145352,80.5670423 C80.3126761,75.9655775 71.6930141,77.0962254 65.7002254,83.0890141 L30.7649014,118.02631 C27.1686761,121.622535 21.3194366,121.622535 17.7232113,118.02631 L12.4351549,112.738254 C9.32952113,109.63262 8.91977465,104.851324 11.1790986,101.287831 L6.76929577,96.8780282 C2.14929577,102.899211 2.5795493,111.577634 8.08766197,117.087718 L13.3757183,122.375775 C19.368507,128.368563 29.1192113,128.368563 35.112,122.375775 L70.0473239,87.4404507 C73.8896338,83.5981408 78.6752676,83.0267042 80.5670423,84.9184789 L86.7376901,91.0891268 L91.0851831,86.7376901 Z" id="Shape"></path>
                </g>
            </g>
            <g id="Text" transform="translate(214.000000, 18.000000)">
                <path d="M12.7142969,12.6706686 L12.7142969,39.7676543 L31.5268538,39.7676543 C36.2443993,39.6909462 39.7920937,38.233515 42.1700434,35.3953169 C44.4329311,32.6338268 45.564358,29.5655506 45.564358,26.1903961 C45.564358,23.390552 45.1041165,21.0318146 44.1836199,19.1141132 C43.2247691,17.3881819 41.8823983,16.0266343 40.156467,15.0294296 C37.5483931,13.3802064 34.5184703,12.5939606 31.0666077,12.6706686 L12.7142969,12.6706686 Z M0,84.5265817 L0,0.646740836 L30.3762387,0.646740836 C33.6746851,0.646740836 36.8580217,0.953568461 39.926344,1.56723292 C42.9946663,2.37266751 46.101296,4.021866 49.2463263,6.51487785 C51.8927543,8.39422524 54.0405476,11.078967 55.6897709,14.5691836 C57.4157021,17.9443381 58.2786548,21.9330972 58.2786548,26.5355806 C58.2786548,32.7489332 56.092508,38.4060675 51.7201488,43.5071533 C47.2327274,48.8767173 40.674287,51.6381659 32.0446306,51.7915821 L12.7142969,51.7915821 L12.7142969,84.5265817 L0,84.5265817 Z M112.932872,59.2130495 L75.7104736,59.2130495 C75.7104736,64.007303 77.0911979,67.6508811 79.852688,70.1438929 C82.4224079,72.6752588 85.7975118,73.9409227 89.9781009,73.9409227 C94.8490625,73.9409227 99.2021794,72.0040734 103.037582,68.1303165 L111.724726,75.5517839 C105.626436,82.0719687 98.45434,85.2936588 90.2082239,85.2169507 C87.0631935,85.2169507 83.9949173,84.7567093 81.0033031,83.8362126 C79.507496,83.3376102 78.0500647,82.6664248 76.6309657,81.8226362 C75.1351586,81.0939096 73.7352575,80.1926035 72.4312206,79.1186907 C69.8998547,76.894157 67.847945,73.7875273 66.2754298,69.7987084 C64.5494985,65.9633055 63.6865458,60.9773566 63.6865458,54.8407121 C63.6865458,48.9341917 64.4344382,44.0249497 65.9302453,40.1128388 C67.4260524,36.1240198 69.343725,32.9790367 71.6833208,30.677795 C74.0612705,28.3381992 76.7268355,26.6506473 79.6800957,25.6150885 C82.5950019,24.5795297 85.4715109,24.0617581 88.309709,24.0617581 C95.136726,24.1384662 100.908921,26.3821432 105.626466,30.7928565 C110.42072,35.2802778 112.856164,41.4551838 112.932872,49.3177596 L112.932872,59.2130495 Z M75.7104736,49.3177596 L100.908944,49.3177596 C100.755528,44.6769221 99.509041,41.1675812 97.1694452,38.7896314 C94.8682035,36.5267437 91.9149876,35.3953169 88.309709,35.3953169 C84.7044303,35.3953169 81.7512144,36.5267437 79.4499727,38.7896314 C77.187085,41.1675812 75.9405978,44.6769221 75.7104736,49.3177596 Z M125.532107,84.5265817 L125.532107,24.8096579 L137.556035,24.8096579 L137.556035,31.138041 L137.786158,31.138041 C141.736623,26.4204955 146.914339,24.0617581 153.319462,24.0617581 C158.113716,24.1384662 162.294242,25.6726043 165.861167,28.6642185 L157.116492,39.0772852 C154.585126,37.0828757 151.957915,36.0856859 149.234779,36.0856859 C146.166456,36.0856859 143.539245,37.0828757 141.353065,39.0772852 C138.898407,41.0333406 137.632743,44.1975005 137.556035,48.5698598 L137.556035,84.5265817 L125.532107,84.5265817 Z M172.074488,84.5265817 L172.074488,24.8096579 L184.098416,24.8096579 L184.098416,31.138041 L184.328539,31.138041 C188.279004,26.4204955 193.475897,24.0617581 199.919374,24.0617581 C204.061609,24.1384662 207.398359,24.8480051 209.929725,26.1903961 C212.422737,27.6862032 214.704767,29.5846991 216.775885,31.8859408 C221.455076,26.5930849 227.725866,23.9850501 235.588442,24.0617581 C240.536112,24.0617581 245.061819,25.8068403 249.1657,29.2970568 C253.231227,32.8256275 255.340667,38.0033436 255.494083,44.8303607 L255.494083,84.5265817 L243.470155,84.5265817 L243.470155,48.9725751 C243.470155,44.791986 242.377082,41.6086493 240.190902,39.4224697 C238.004723,37.1979361 235.185744,36.0856859 231.733881,36.0856859 C228.282019,36.0856859 225.443863,37.1979361 223.21933,39.4224697 C220.956442,41.6086493 219.825015,44.791986 219.825015,48.9725751 L219.825015,84.5265817 L207.801087,84.5265817 L207.801087,48.9725751 C207.801087,44.791986 206.708014,41.6086493 204.521834,39.4224697 C202.2973,37.1979361 199.459145,36.0856859 196.007282,36.0856859 C192.55542,36.0856859 189.736441,37.1979361 187.550261,39.4224697 C185.24902,41.6086493 184.098416,44.791986 184.098416,48.9725751 L184.098416,84.5265817 L172.074488,84.5265817 Z M303.129548,84.5265817 L303.129548,79.2337522 L302.899425,79.2337522 C301.787158,81.2665157 300.061253,82.7623004 297.721657,83.7211511 C295.420416,84.7183558 292.237079,85.2169507 288.171552,85.2169507 C281.497951,85.1402427 276.358588,83.3759838 272.75331,79.9241213 C268.956261,76.5489668 267.057765,72.2342033 267.057765,66.9797014 C267.057765,61.9553237 268.706963,57.793974 272.00541,54.4955275 C275.303856,51.120373 280.136391,49.3944676 286.50316,49.3177596 L303.129548,49.3177596 L303.129548,43.0469073 C303.206256,37.7924054 299.121614,35.2419008 290.875497,35.3953169 C287.883883,35.3953169 285.525146,35.7021445 283.799215,36.315809 C281.996575,37.0445355 280.577497,38.271846 279.541939,39.9977773 L270.106895,32.8064329 C274.671024,26.8232045 281.402055,23.908342 290.30019,24.0617581 C297.817579,23.9850501 303.819895,25.4041278 308.307316,28.319034 C312.794738,31.3106482 315.076768,36.4500109 315.153476,43.7372764 L315.153476,84.5265817 L303.129548,84.5265817 Z M303.129548,63.5278561 L303.129548,59.2130495 L288.746859,59.2130495 C281.766426,59.3664656 278.314616,61.7635564 278.391324,66.4043938 C278.391324,68.4371573 279.29263,70.1630627 281.095269,71.5821618 C282.8212,73.154677 285.678533,73.9409227 289.667352,73.9409227 C294.691729,74.0176308 298.239424,73.4231523 300.310541,72.1574693 C302.189889,70.8917864 303.129548,68.0152774 303.129548,63.5278561 Z M330.68678,84.5265817 L330.68678,24.8096579 L342.710708,24.8096579 L342.710708,31.138041 L342.940831,31.138041 C346.891296,26.4204955 352.069012,24.0617581 358.474135,24.0617581 C363.421804,24.0617581 367.947512,25.8068403 372.051393,29.2970568 C376.11692,32.8256275 378.245536,38.0033436 378.437307,44.8303607 L378.437307,84.5265817 L366.413379,84.5265817 L366.413379,48.9725751 C366.413379,44.791986 365.301129,41.6086493 363.076595,39.4224697 C360.890415,37.1979361 358.071437,36.0856859 354.619574,36.0856859 C351.167711,36.0856859 348.329556,37.1979361 346.105022,39.4224697 C343.842135,41.6086493 342.710708,44.791986 342.710708,48.9725751 L342.710708,84.5265817 L330.68678,84.5265817 Z M440.282868,59.2130495 L403.06047,59.2130495 C403.06047,64.007303 404.441194,67.6508811 407.202684,70.1438929 C409.772404,72.6752588 413.147508,73.9409227 417.328097,73.9409227 C422.199059,73.9409227 426.552176,72.0040734 430.387578,68.1303165 L439.074722,75.5517839 C432.976432,82.0719687 425.804336,85.2936588 417.55822,85.2169507 C414.41319,85.2169507 411.344913,84.7567093 408.353299,83.8362126 C406.857492,83.3376102 405.400061,82.6664248 403.980962,81.8226362 C402.485155,81.0939096 401.085254,80.1926035 399.781217,79.1186907 C397.249851,76.894157 395.197941,73.7875273 393.625426,69.7987084 C391.899495,65.9633055 391.036542,60.9773566 391.036542,54.8407121 C391.036542,48.9341917 391.784434,44.0249497 393.280241,40.1128388 C394.776048,36.1240198 396.693721,32.9790367 399.033317,30.677795 C401.411267,28.3381992 404.076832,26.6506473 407.030092,25.6150885 C409.944998,24.5795297 412.821507,24.0617581 415.659705,24.0617581 C422.486722,24.1384662 428.258917,26.3821432 432.976462,30.7928565 C437.770716,35.2802778 440.20616,41.4551838 440.282868,49.3177596 L440.282868,59.2130495 Z M403.06047,49.3177596 L428.25894,49.3177596 C428.105524,44.6769221 426.859037,41.1675812 424.519441,38.7896314 C422.2182,36.5267437 419.264984,35.3953169 415.659705,35.3953169 C412.054426,35.3953169 409.101211,36.5267437 406.799969,38.7896314 C404.537081,41.1675812 403.290594,44.6769221 403.06047,49.3177596 Z M452.882104,84.5265817 L452.882104,24.8096579 L464.906031,24.8096579 L464.906031,31.138041 L465.136154,31.138041 C469.086619,26.4204955 474.264336,24.0617581 480.669458,24.0617581 C485.617128,24.0617581 490.142835,25.8068403 494.246716,29.2970568 C498.312243,32.8256275 500.44086,38.0033436 500.63263,44.8303607 L500.63263,84.5265817 L488.608702,84.5265817 L488.608702,48.9725751 C488.608702,44.791986 487.496452,41.6086493 485.271919,39.4224697 C483.085739,37.1979361 480.26676,36.0856859 476.814898,36.0856859 C473.363035,36.0856859 470.52488,37.1979361 468.300346,39.4224697 C466.037458,41.6086493 464.906031,44.791986 464.906031,48.9725751 L464.906031,84.5265817 L452.882104,84.5265817 Z M516.856303,24.8096579 L516.856303,6.62993936 L528.880231,6.62993936 L528.880231,24.8096579 L537.624906,24.8096579 L537.624906,33.957048 L528.880231,33.957048 L528.880231,68.7631548 C528.803523,71.793123 530.222601,73.269731 533.137507,73.1930229 L537.624906,73.1930229 L537.624906,84.5265817 L531.354053,84.5265817 C527.13511,84.5265817 523.6833,83.2225643 520.998518,80.6144903 C518.237027,78.1214785 516.856303,74.5162539 516.856303,69.7987084 L516.856303,33.957048 L510.873105,33.957048 L510.873105,24.8096579 L516.856303,24.8096579 Z" id="Permanent" fill="#1F5FAF"></path>
                <path d="M4.07100169,139.463732 C7.32781932,142.140312 11.2022512,143.497299 15.6944134,143.534734 C21.0101387,143.459864 23.7053957,141.560083 23.780265,137.835331 C23.8176997,134.784404 22.0395788,132.950132 18.445849,132.33246 C16.7987229,132.107852 14.9925264,131.855172 13.0272054,131.574412 C9.50834497,130.994174 6.83180511,129.693338 4.99750552,127.671865 C3.10705391,125.59424 2.16184228,123.067437 2.16184228,120.091379 C2.16184228,116.516367 3.35037571,113.633939 5.72747824,111.44401 C8.02971139,109.272798 11.2958387,108.168492 15.5259582,108.131057 C20.6170754,108.243361 25.0436605,109.656499 28.8058464,112.370514 L25.352514,117.480323 C22.2828698,115.45885 18.9044401,114.410694 15.2171236,114.335825 C13.3079546,114.335825 11.7170043,114.81311 10.444225,115.767695 C9.11529369,116.759714 8.43212093,118.238362 8.39468624,120.203683 C8.39468624,121.382875 8.85325426,122.449748 9.77040405,123.404332 C10.6875538,124.377634 12.1568432,125.051448 14.1783162,125.425795 C15.3013568,125.612969 16.8361559,125.828215 18.7827595,126.07154 C22.6198148,126.595626 25.4554497,127.97133 27.2897492,130.198694 C29.1053315,132.388623 30.013109,134.934143 30.013109,137.835331 C29.8072182,145.659181 25.0156504,149.627198 15.6382617,149.739502 C9.57384261,149.739502 4.36114086,147.867796 0,144.124327 L4.07100169,139.463732 Z M58.6224243,137.049207 L40.457334,137.049207 C40.457334,139.388875 41.1311483,141.166996 42.4787969,142.383623 C43.7328589,143.618968 45.3799603,144.236631 47.4201507,144.236631 C49.7972532,144.236631 51.9216398,143.291419 53.793374,141.400967 L58.032831,145.022755 C55.0567735,148.204703 51.5566829,149.776936 47.5324542,149.739502 C45.9976321,149.739502 44.5002671,149.514897 43.0403144,149.065681 C42.310338,148.822355 41.5990897,148.494807 40.906548,148.083025 C40.1765716,147.727396 39.4933989,147.287545 38.8570092,146.763459 C37.6216646,145.677853 36.6203018,144.161771 35.8528907,142.215168 C35.0106103,140.343433 34.5894764,137.910215 34.5894764,134.91544 C34.5894764,132.03297 34.9544591,129.637186 35.6844355,127.728017 C36.4144119,125.781413 37.350265,124.246614 38.4920229,123.123574 C39.6524981,121.981816 40.9533339,121.158265 42.3945693,120.652897 C43.8170874,120.147528 45.220867,119.894848 46.6059504,119.894848 C49.9376374,119.932283 52.7545552,121.027231 55.0567884,123.179725 C57.3964562,125.369654 58.5849896,128.383101 58.6224243,132.220157 L58.6224243,137.049207 Z M40.457334,132.220157 L52.7545667,132.220157 C52.6796973,129.955358 52.0713928,128.242747 50.9296349,127.082272 C49.8065944,125.977949 48.3653806,125.425795 46.6059504,125.425795 C44.8465201,125.425795 43.4053064,125.977949 42.2822658,127.082272 C41.1779426,128.242747 40.5696381,129.955358 40.457334,132.220157 Z M80.0723918,149.402591 L80.0723918,146.819611 L79.9600883,146.819611 C79.4172854,147.81163 78.5750176,148.541596 77.4332597,149.009529 C76.3102191,149.49618 74.756703,149.739502 72.7726647,149.739502 C69.515847,149.702067 67.0077607,148.841082 65.2483305,147.156521 C63.3953136,145.509395 62.468819,143.403726 62.468819,140.83945 C62.468819,138.387478 63.2736527,136.356677 64.8833442,134.746985 C66.4930356,133.099859 68.8513854,132.257591 71.9584643,132.220157 L80.0723918,132.220157 L80.0723918,129.159886 C80.1098265,126.59561 78.1164594,125.350926 74.0922307,125.425795 C72.632278,125.425795 71.4811787,125.575532 70.6388983,125.875009 C69.7591832,126.230639 69.0666519,126.829585 68.5612836,127.671865 L63.9568403,124.162381 C66.1842041,121.242475 69.4690485,119.819979 73.811472,119.894848 C77.4800712,119.857413 80.4092914,120.549945 82.5992205,121.972463 C84.7891496,123.432415 85.9028148,125.940502 85.9402494,129.496797 L85.9402494,149.402591 L80.0723918,149.402591 Z M80.0723918,139.154897 L80.0723918,137.049207 L73.0534234,137.049207 C69.646867,137.124076 67.9623314,138.293893 67.9997661,140.558691 C67.9997661,141.55071 68.4396171,142.392978 69.3193322,143.08552 C70.1616126,143.852931 71.5560337,144.236631 73.5026374,144.236631 C75.9546093,144.274065 77.6859375,143.983951 78.696674,143.366278 C79.6138238,142.748606 80.0723918,141.344827 80.0723918,139.154897 Z M93.8576458,149.402591 L93.8576458,120.259834 L99.7255034,120.259834 L99.7255034,123.348181 L99.8378069,123.348181 C101.765693,121.045947 104.301855,119.894848 107.446369,119.894848 C109.467842,119.932283 111.096226,120.278548 112.331571,120.933655 C113.548198,121.663632 114.661863,122.590126 115.6726,123.713167 C117.956116,121.130174 121.016355,119.857413 124.85341,119.894848 C127.267948,119.894848 129.476561,120.746474 131.479317,122.449753 C133.463355,124.171748 134.492793,126.698551 134.567663,130.030238 L134.567663,149.402591 L128.699805,149.402591 L128.699805,132.051701 C128.699805,130.011511 128.166369,128.457995 127.09948,127.391106 C126.032592,126.3055 124.656888,125.762706 122.972327,125.762706 C121.287766,125.762706 119.902703,126.3055 118.817098,127.391106 C117.712774,128.457995 117.160621,130.011511 117.160621,132.051701 L117.160621,149.402591 L111.292763,149.402591 L111.292763,132.051701 C111.292763,130.011511 110.759327,128.457995 109.692439,127.391106 C108.606833,126.3055 107.22177,125.762706 105.537209,125.762706 C103.852648,125.762706 102.476944,126.3055 101.410056,127.391106 C100.287015,128.457995 99.7255034,130.011511 99.7255034,132.051701 L99.7255034,149.402591 L93.8576458,149.402591 Z M142.513135,142.327471 L142.513135,108.467967 L148.380993,108.467967 L148.380993,141.878257 C148.380993,143.207189 149.110958,143.871644 150.570911,143.871644 L152.592374,143.871644 L152.592374,149.402591 L149.981317,149.402591 C147.84754,149.402591 146.088136,148.869155 144.703053,147.802267 C143.2431,146.716661 142.513135,144.891747 142.513135,142.327471 Z M179.938275,137.049207 L161.773184,137.049207 C161.773184,139.388875 162.446999,141.166996 163.794647,142.383623 C165.048709,143.618968 166.695811,144.236631 168.736001,144.236631 C171.113104,144.236631 173.23749,143.291419 175.109224,141.400967 L179.348681,145.022755 C176.372624,148.204703 172.872533,149.776936 168.848305,149.739502 C167.313482,149.739502 165.816117,149.514897 164.356165,149.065681 C163.626188,148.822355 162.91494,148.494807 162.222398,148.083025 C161.492422,147.727396 160.809249,147.287545 160.17286,146.763459 C158.937515,145.677853 157.936152,144.161771 157.168741,142.215168 C156.326461,140.343433 155.905327,137.910215 155.905327,134.91544 C155.905327,132.03297 156.270309,129.637186 157.000286,127.728017 C157.730262,125.781413 158.666115,124.246614 159.807873,123.123574 C160.968348,121.981816 162.269184,121.158265 163.71042,120.652897 C165.132938,120.147528 166.536717,119.894848 167.921801,119.894848 C171.253488,119.932283 174.070406,121.027231 176.372639,123.179725 C178.712307,125.369654 179.90084,128.383101 179.938275,132.220157 L179.938275,137.049207 Z M161.773184,132.220157 L174.070417,132.220157 C173.995548,129.955358 173.387243,128.242747 172.245485,127.082272 C171.122445,125.977949 169.681231,125.425795 167.921801,125.425795 C166.16237,125.425795 164.721157,125.977949 163.598116,127.082272 C162.493793,128.242747 161.885488,129.955358 161.773184,132.220157 Z M186.957243,140.502539 C189.334346,142.991946 192.403944,144.236631 196.16613,144.236631 C197.85069,144.236631 199.226395,143.909082 200.293283,143.253975 C201.360172,142.598868 201.893608,141.681732 201.893608,140.502539 C201.893608,139.454368 201.575418,138.724403 200.939028,138.312621 C200.283921,137.882122 199.413578,137.648159 198.327972,137.610724 L193.162011,137.16151 C190.710039,136.936902 188.716672,136.113352 187.18185,134.690834 C185.609593,133.30575 184.80476,131.368534 184.767325,128.879128 C184.80476,125.884353 185.862274,123.638305 187.939899,122.140918 C189.961372,120.643531 192.525609,119.894848 195.632688,119.894848 C196.980337,119.894848 198.187587,119.979075 199.254476,120.147531 C200.321364,120.334704 201.322727,120.596743 202.258594,120.933655 C204.055459,121.663632 205.665126,122.646278 207.087645,123.881622 L203.465857,128.121079 C202.342816,127.316233 201.154283,126.651778 199.900221,126.127692 C198.664876,125.659758 197.24238,125.425795 195.632688,125.425795 C193.798388,125.425795 192.51627,125.753344 191.786293,126.408451 C191.018882,127.063558 190.635183,127.905826 190.635183,128.935279 C190.597748,129.590386 190.887862,130.161257 191.505535,130.647908 C192.067055,131.190711 193.059059,131.536976 194.481577,131.686715 L199.310627,132.051701 C202.342837,132.276309 204.532733,133.193446 205.880382,134.803137 C207.134444,136.375394 207.761465,138.368761 207.761465,140.783298 C207.724031,143.609617 206.572931,145.790155 204.308133,147.324977 C202.062052,148.897233 199.188983,149.702067 195.68884,149.739502 C190.934635,149.739502 186.657786,147.998815 182.858165,144.517389 L186.957243,140.502539 Z M214.555827,140.502539 C216.932929,142.991946 220.002528,144.236631 223.764713,144.236631 C225.449274,144.236631 226.824978,143.909082 227.891867,143.253975 C228.958755,142.598868 229.492192,141.681732 229.492192,140.502539 C229.492192,139.454368 229.174002,138.724403 228.537612,138.312621 C227.882505,137.882122 227.012162,137.648159 225.926556,137.610724 L220.760595,137.16151 C218.308623,136.936902 216.315256,136.113352 214.780434,134.690834 C213.208177,133.30575 212.403343,131.368534 212.365909,128.879128 C212.403343,125.884353 213.460857,123.638305 215.538482,122.140918 C217.559956,120.643531 220.124193,119.894848 223.231272,119.894848 C224.578921,119.894848 225.786171,119.979075 226.85306,120.147531 C227.919948,120.334704 228.921311,120.596743 229.857178,120.933655 C231.654043,121.663632 233.26371,122.646278 234.686228,123.881622 L231.064441,128.121079 C229.9414,127.316233 228.752867,126.651778 227.498805,126.127692 C226.26346,125.659758 224.840963,125.425795 223.231272,125.425795 C221.396972,125.425795 220.114854,125.753344 219.384877,126.408451 C218.617466,127.063558 218.233766,127.905826 218.233766,128.935279 C218.196332,129.590386 218.486446,130.161257 219.104118,130.647908 C219.665639,131.190711 220.657643,131.536976 222.080161,131.686715 L226.909211,132.051701 C229.941421,132.276309 232.131317,133.193446 233.478966,134.803137 C234.733028,136.375394 235.360049,138.368761 235.360049,140.783298 C235.322615,143.609617 234.171515,145.790155 231.906717,147.324977 C229.660636,148.897233 226.787567,149.702067 223.287424,149.739502 C218.533219,149.739502 214.25637,147.998815 210.456749,144.517389 L214.555827,140.502539 Z M255.602754,149.402591 L255.602754,108.467967 L261.442536,108.467967 L273.178251,135.140047 L284.689359,108.467967 L290.557217,108.467967 L290.557217,149.402591 L284.352449,149.402591 L284.352449,123.881622 L284.21207,123.881622 L275.648928,143.534734 L270.482967,143.534734 L261.919826,123.881622 L261.807522,123.881622 L261.807522,149.402591 L255.602754,149.402591 Z M321.244147,137.049207 L303.079057,137.049207 C303.079057,139.388875 303.752871,141.166996 305.10052,142.383623 C306.354582,143.618968 308.001683,144.236631 310.041873,144.236631 C312.418976,144.236631 314.543362,143.291419 316.415097,141.400967 L320.654554,145.022755 C317.678496,148.204703 314.178406,149.776936 310.154177,149.739502 C308.619355,149.739502 307.12199,149.514897 305.662037,149.065681 C304.932061,148.822355 304.220812,148.494807 303.528271,148.083025 C302.798294,147.727396 302.115122,147.287545 301.478732,146.763459 C300.243387,145.677853 299.242024,144.161771 298.474613,142.215168 C297.632333,140.343433 297.211199,137.910215 297.211199,134.91544 C297.211199,132.03297 297.576182,129.637186 298.306158,127.728017 C299.036135,125.781413 299.971988,124.246614 301.113746,123.123574 C302.274221,121.981816 303.575057,121.158265 305.016292,120.652897 C306.43881,120.147528 307.84259,119.894848 309.227673,119.894848 C312.55936,119.932283 315.376278,121.027231 317.678511,123.179725 C320.018179,125.369654 321.206712,128.383101 321.244147,132.220157 L321.244147,137.049207 Z M303.079057,132.220157 L315.376289,132.220157 C315.30142,129.955358 314.693116,128.242747 313.551358,127.082272 C312.428317,125.977949 310.987103,125.425795 309.227673,125.425795 C307.468243,125.425795 306.027029,125.977949 304.903989,127.082272 C303.799665,128.242747 303.191361,129.955358 303.079057,132.220157 Z M327.729674,149.402591 L327.729674,120.259834 L333.597531,120.259834 L333.597531,123.348181 L333.709835,123.348181 C335.637721,121.045947 338.173883,119.894848 341.318397,119.894848 C343.33987,119.932283 344.968254,120.278548 346.203599,120.933655 C347.420226,121.663632 348.533891,122.590126 349.544628,123.713167 C351.828144,121.130174 354.888383,119.857413 358.725438,119.894848 C361.139976,119.894848 363.348589,120.746474 365.351345,122.449753 C367.335383,124.171748 368.364821,126.698551 368.439691,130.030238 L368.439691,149.402591 L362.571833,149.402591 L362.571833,132.051701 C362.571833,130.011511 362.038397,128.457995 360.971508,127.391106 C359.90462,126.3055 358.528916,125.762706 356.844355,125.762706 C355.159794,125.762706 353.774731,126.3055 352.689126,127.391106 C351.584802,128.457995 351.032649,130.011511 351.032649,132.051701 L351.032649,149.402591 L345.164791,149.402591 L345.164791,132.051701 C345.164791,130.011511 344.631355,128.457995 343.564467,127.391106 C342.478861,126.3055 341.093798,125.762706 339.409237,125.762706 C337.724676,125.762706 336.348972,126.3055 335.282084,127.391106 C334.159043,128.457995 333.597531,130.011511 333.597531,132.051701 L333.597531,149.402591 L327.729674,149.402591 Z M376.385163,149.402591 L376.385163,108.467967 L382.253021,108.467967 L382.253021,123.348181 C383.319909,122.318727 384.489726,121.476459 385.762505,120.821352 C386.941697,120.20368 388.279967,119.894848 389.777355,119.894848 C393.352367,119.988435 395.963397,121.261195 397.610524,123.713167 C398.415369,124.630317 398.967523,125.837567 399.267,127.334955 C399.54776,128.813625 399.688138,131.302994 399.688138,134.803137 C399.688138,138.247128 399.54776,140.71778 399.267,142.215168 C398.967523,143.787424 398.415369,145.032109 397.610524,145.949259 C396.805678,147.072299 395.748164,147.970718 394.43795,148.644543 C393.146453,149.337084 391.592937,149.702067 389.777355,149.739502 C386.707711,149.664632 384.199624,148.53225 382.253021,146.342321 L382.253021,149.402591 L376.385163,149.402591 Z M388.008575,125.762706 C386.698361,125.762706 385.659564,126.034103 384.892153,126.576906 C384.087307,127.119709 383.49772,127.830957 383.123373,128.710672 C382.767743,129.590388 382.53378,130.544958 382.421476,131.574412 C382.309172,132.603865 382.253021,133.680096 382.253021,134.803137 C382.253021,135.832591 382.309172,136.880746 382.421476,137.947635 C382.53378,139.033241 382.767743,140.015886 383.123373,140.895602 C383.49772,141.775317 384.087307,142.486565 384.892153,143.029368 C385.659564,143.590888 386.698361,143.871644 388.008575,143.871644 C389.393658,143.871644 390.488606,143.609605 391.293452,143.08552 C392.098298,142.542717 392.669168,141.850186 393.00608,141.007905 C393.380427,140.12819 393.633107,139.136186 393.764129,138.031862 C393.801564,136.983691 393.820281,135.90746 393.820281,134.803137 C393.820281,133.642662 393.801564,132.510279 393.764129,131.405956 C393.633107,130.376502 393.380427,129.421932 393.00608,128.542217 C392.669168,127.662502 392.098298,126.969971 391.293452,126.464603 C390.488606,125.996669 389.393658,125.762706 388.008575,125.762706 Z M406.229817,149.402591 L406.229817,120.259834 L412.097674,120.259834 L412.097674,123.348181 L412.209978,123.348181 C414.137864,121.045947 416.664668,119.894848 419.790464,119.894848 C422.130132,119.932283 424.170291,120.680965 425.911004,122.140918 L421.643471,127.222651 C420.408127,126.249349 419.126008,125.762706 417.797077,125.762706 C416.299689,125.762706 415.017571,126.249349 413.950682,127.222651 C412.752772,128.177236 412.135109,129.721393 412.097674,131.85517 L412.097674,149.402591 L406.229817,149.402591 Z M442.868832,149.402591 L442.868832,146.819611 L442.756528,146.819611 C442.213726,147.81163 441.371458,148.541596 440.2297,149.009529 C439.106659,149.49618 437.553143,149.739502 435.569105,149.739502 C432.312287,149.702067 429.804201,148.841082 428.044771,147.156521 C426.191754,145.509395 425.265259,143.403726 425.265259,140.83945 C425.265259,138.387478 426.070093,136.356677 427.679784,134.746985 C429.289476,133.099859 431.647826,132.257591 434.754904,132.220157 L442.868832,132.220157 L442.868832,129.159886 C442.906267,126.59561 440.9129,125.350926 436.888671,125.425795 C435.428718,125.425795 434.277619,125.575532 433.435338,125.875009 C432.555623,126.230639 431.863092,126.829585 431.357724,127.671865 L426.75328,124.162381 C428.980644,121.242475 432.265489,119.819979 436.607912,119.894848 C440.276511,119.857413 443.205731,120.549945 445.395661,121.972463 C447.58559,123.432415 448.699255,125.940502 448.73669,129.496797 L448.73669,149.402591 L442.868832,149.402591 Z M442.868832,139.154897 L442.868832,137.049207 L435.849864,137.049207 C432.443307,137.124076 430.758772,138.293893 430.796206,140.558691 C430.796206,141.55071 431.236057,142.392978 432.115772,143.08552 C432.958053,143.852931 434.352474,144.236631 436.299078,144.236631 C438.751049,144.274065 440.482378,143.983951 441.493114,143.366278 C442.410264,142.748606 442.868832,141.344827 442.868832,139.154897 Z M456.317175,149.402591 L456.317175,120.259834 L462.185033,120.259834 L462.185033,123.348181 L462.297337,123.348181 C464.225223,121.045947 466.752026,119.894848 469.877822,119.894848 C472.29236,119.894848 474.500973,120.746474 476.503729,122.449753 C478.487767,124.171748 479.526564,126.698551 479.620151,130.030238 L479.620151,149.402591 L473.752293,149.402591 L473.752293,132.051701 C473.752293,130.011511 473.209498,128.457995 472.123892,127.391106 C471.057004,126.3055 469.6813,125.762706 467.996739,125.762706 C466.312178,125.762706 464.927115,126.3055 463.84151,127.391106 C462.737186,128.457995 462.185033,130.011511 462.185033,132.051701 L462.185033,149.402591 L456.317175,149.402591 Z M509.801715,137.049207 L491.636625,137.049207 C491.636625,139.388875 492.310439,141.166996 493.658087,142.383623 C494.912149,143.618968 496.559251,144.236631 498.599441,144.236631 C500.976544,144.236631 503.10093,143.291419 504.972665,141.400967 L509.212122,145.022755 C506.236064,148.204703 502.735973,149.776936 498.711745,149.739502 C497.176923,149.739502 495.679558,149.514897 494.219605,149.065681 C493.489629,148.822355 492.77838,148.494807 492.085839,148.083025 C491.355862,147.727396 490.672689,147.287545 490.0363,146.763459 C488.800955,145.677853 487.799592,144.161771 487.032181,142.215168 C486.189901,140.343433 485.768767,137.910215 485.768767,134.91544 C485.768767,132.03297 486.13375,129.637186 486.863726,127.728017 C487.593702,125.781413 488.529556,124.246614 489.671313,123.123574 C490.831789,121.981816 492.132624,121.158265 493.57386,120.652897 C494.996378,120.147528 496.400158,119.894848 497.785241,119.894848 C501.116928,119.932283 503.933846,121.027231 506.236079,123.179725 C508.575747,125.369654 509.76428,128.383101 509.801715,132.220157 L509.801715,137.049207 Z M491.636625,132.220157 L503.933857,132.220157 C503.858988,129.955358 503.250683,128.242747 502.108925,127.082272 C500.985885,125.977949 499.544671,125.425795 497.785241,125.425795 C496.025811,125.425795 494.584597,125.977949 493.461556,127.082272 C492.357233,128.242747 491.748929,129.955358 491.636625,132.220157 Z M516.820683,140.502539 C519.197786,142.991946 522.267384,144.236631 526.02957,144.236631 C527.714131,144.236631 529.089835,143.909082 530.156723,143.253975 C531.223612,142.598868 531.757048,141.681732 531.757048,140.502539 C531.757048,139.454368 531.438858,138.724403 530.802468,138.312621 C530.147361,137.882122 529.277018,137.648159 528.191412,137.610724 L523.025451,137.16151 C520.57348,136.936902 518.580112,136.113352 517.04529,134.690834 C515.473034,133.30575 514.6682,131.368534 514.630765,128.879128 C514.6682,125.884353 515.725714,123.638305 517.803339,122.140918 C519.824812,120.643531 522.389049,119.894848 525.496128,119.894848 C526.843777,119.894848 528.051027,119.979075 529.117916,120.147531 C530.184805,120.334704 531.186167,120.596743 532.122034,120.933655 C533.918899,121.663632 535.528567,122.646278 536.951085,123.881622 L533.329297,128.121079 C532.206256,127.316233 531.017723,126.651778 529.763661,126.127692 C528.528316,125.659758 527.10582,125.425795 525.496128,125.425795 C523.661829,125.425795 522.37971,125.753344 521.649734,126.408451 C520.882323,127.063558 520.498623,127.905826 520.498623,128.935279 C520.461188,129.590386 520.751303,130.161257 521.368975,130.647908 C521.930495,131.190711 522.922499,131.536976 524.345017,131.686715 L529.174068,132.051701 C532.206277,132.276309 534.396174,133.193446 535.743822,134.803137 C536.997884,136.375394 537.624906,138.368761 537.624906,140.783298 C537.587471,143.609617 536.436372,145.790155 534.171573,147.324977 C531.925492,148.897233 529.052423,149.702067 525.55228,149.739502 C520.798075,149.739502 516.521226,147.998815 512.721606,144.517389 L516.820683,140.502539 Z" id="Seamless-Membranes" fill="#000000"></path>
            </g>
        </g>
    </g>
</svg>