<?xml version="1.0" encoding="UTF-8"?>
<svg width="300px" height="200px" viewBox="0 0 300 200" version="1.1" xmlns="http://www.w3.org/2000/svg" xmlns:xlink="http://www.w3.org/1999/xlink">
    <!-- Generator: Sketch 48.2 (47327) - http://www.bohemiancoding.com/sketch -->
    <title>suppliers</title>
    <desc>Created with Sketch.</desc>
    <defs></defs>
    <g id="Page-1" stroke="none" stroke-width="1" fill="none" fill-rule="evenodd">
        <g id="suppliers" fill-rule="nonzero">
            <g id="tremco" transform="translate(0.000000, 50.000000)">
                <g id="Group" transform="translate(125.806452, 6.451613)" fill="#364A5A">
                    <g transform="translate(3.225806, 48.387097)" id="Shape">
                        <polygon points="142.741935 0.483870968 150.806452 0.483870968 150.806452 20.483871 160 10.3225806 169.677419 10.3225806 158.870968 21.2903226 170 38.3870968 160.806452 38.3870968 153.548387 26.9354839 150.806452 29.8387097 150.806452 38.3870968 142.741935 38.3870968"></polygon>
                        <path d="M137.580645,29.6774194 C135.967742,30.9677419 133.548387,32.0967742 130.967742,32.0967742 C127.096774,31.9354839 124.032258,29.3548387 124.032258,24.3548387 L124.032258,24.1935484 C124.032258,18.7096774 127.580645,16.6129032 130.806452,16.6129032 C133.709677,16.6129032 135.967742,17.5806452 137.419355,18.8709677 L140.16129,12.7419355 C137.419355,10.483871 134.193548,9.67741935 130.645161,9.83870968 C120.645161,10.1612903 115.967742,16.1290323 115.967742,24.516129 L115.967742,24.6774194 C115.967742,33.5483871 121.935484,39.0322581 130.645161,39.1935484 C134.83871,39.3548387 138.064516,37.9032258 140.322581,35.9677419 L137.580645,29.6774194 Z"></path>
                        <path d="M86.7741935,28.5483871 L86.7741935,10.3225806 L94.6774194,10.3225806 L94.6774194,25.9677419 C94.6774194,30 96.6129032,31.6129032 100.16129,31.6129032 C102.903226,31.6129032 105.806452,29.8387097 105.806452,25.9677419 L105.806452,10.3225806 L113.709677,10.3225806 L113.709677,38.3870968 L105.806452,38.3870968 L105.806452,34.3548387 C103.870968,36.7741935 100.806452,38.8709677 97.0967742,38.8709677 C90.483871,38.8709677 86.7741935,35.1612903 86.7741935,28.5483871 Z"></path>
                        <path d="M67.4193548,10.3225806 L75.3225806,10.3225806 L75.3225806,15.9677419 C76.9354839,12.0967742 79.3548387,9.51612903 84.3548387,9.83870968 L84.3548387,18.2258065 L83.8709677,18.2258065 C78.5483871,18.2258065 75.3225806,21.4516129 75.3225806,28.0645161 L75.3225806,38.3870968 L67.4193548,38.3870968 L67.4193548,10.3225806 Z"></path>
                        <path d="M57.7419355,24.3548387 C57.7419355,18.8709677 55,16.4516129 51.2903226,16.4516129 C47.9032258,16.4516129 44.8387097,18.3870968 44.8387097,24.1935484 L44.8387097,24.3548387 C44.8387097,29.516129 47.7419355,32.0967742 51.2903226,32.0967742 C55.1612903,32.0967742 57.7419355,29.3548387 57.7419355,24.3548387 Z M44.6774194,35.6451613 L44.6774194,38.5483871 L37.0967742,38.5483871 L37.0967742,0.483870968 L44.6774194,0.483870968 L44.6774194,13.2258065 C46.2903226,10.8064516 49.516129,9.67741935 53.0645161,9.67741935 C60.3225806,9.67741935 65.1612903,14.6774194 65.1612903,24.1935484 L65.1612903,24.3548387 C65.1612903,33.8709677 59.8387097,38.8709677 53.0645161,38.8709677 C49.6774194,38.8709677 46.2903226,37.5806452 44.6774194,35.6451613 Z"></path>
                        <polygon points="24.8387097 0.483870968 28.8709677 0.483870968 32.7419355 0.483870968 32.7419355 38.3870968 24.8387097 38.3870968"></polygon>
                        <polygon points="12.4193548 0.483870968 16.9354839 0.483870968 20.483871 0.483870968 20.483871 38.3870968 12.4193548 38.3870968"></polygon>
                        <path d="M0.161290323,10 L8.06451613,10 L8.06451613,38.3870968 L0.161290323,38.3870968 L0.161290323,10 Z M0.161290323,6.4516129 L8.06451613,6.4516129 L8.06451613,0.483870968 L4.51612903,0.483870968 L0.161290323,0.483870968 C0.161290323,0.483870968 0.161290323,6.4516129 0.161290323,6.4516129 Z"></path>
                    </g>
                    <g id="Shape">
                        <path d="M157.741935,22.0967742 C157.741935,16.9354839 155.645161,14.1935484 150.645161,14.1935484 C145.806452,14.1935484 143.709677,16.9354839 143.709677,21.9354839 L143.709677,22.0967742 C143.709677,27.0967742 145.322581,29.8387097 150.806452,29.8387097 C155.967742,29.6774194 157.741935,27.0967742 157.741935,22.0967742 Z M136.451613,22.0967742 C136.451613,12.0967742 141.612903,7.41935484 150.967742,7.41935484 C160.322581,7.41935484 165.322581,12.5806452 165.322581,21.9354839 L165.322581,22.0967742 C165.322581,31.4516129 160.645161,36.7741935 150.806452,36.7741935 C141.290323,36.6129032 136.451613,31.6129032 136.451613,22.0967742 Z"></path>
                        <path d="M133.064516,27.4193548 C131.451613,28.7096774 129.032258,29.8387097 126.451613,29.8387097 C122.580645,29.6774194 119.516129,27.0967742 119.516129,22.0967742 L119.516129,21.9354839 C119.516129,16.4516129 123.064516,14.3548387 126.290323,14.3548387 C129.193548,14.3548387 131.451613,15.3225806 132.903226,16.6129032 L135.645161,10.483871 C132.903226,8.22580645 129.677419,7.41935484 126.129032,7.58064516 C116.129032,7.90322581 111.451613,13.8709677 111.451613,22.2580645 L111.451613,22.4193548 C111.451613,31.2903226 117.419355,36.7741935 126.129032,36.9354839 C130.322581,37.0967742 133.548387,35.6451613 135.806452,33.7096774 L133.064516,27.4193548 Z"></path>
                        <path d="M67.2580645,7.90322581 L75.1612903,7.90322581 L75.1612903,11.9354839 C76.9354839,9.67741935 79.3548387,7.41935484 83.2258065,7.41935484 C86.7741935,7.41935484 89.516129,9.03225806 90.9677419,11.9354839 C93.3870968,9.03225806 96.2903226,7.41935484 100,7.41935484 C105.645161,7.41935484 109.193548,11.1290323 109.193548,17.7419355 L109.193548,36.1290323 L101.290323,36.1290323 L101.290323,20.483871 C101.290323,16.7741935 99.6774194,14.8387097 96.9354839,14.8387097 C94.6774194,14.8387097 92.4193548,16.7741935 92.4193548,20.483871 L92.4193548,36.1290323 L84.516129,36.1290323 L84.516129,20.483871 C84.516129,16.7741935 82.9032258,14.8387097 80,14.8387097 C77.0967742,14.8387097 75.483871,16.7741935 75.483871,20.483871 L75.483871,36.1290323 L67.5806452,36.1290323 L67.5806452,7.90322581 L67.2580645,7.90322581 Z"></path>
                        <path d="M57.5806452,19.6774194 C57.5806452,15.8064516 55.3225806,13.3870968 51.9354839,13.3870968 C48.2258065,13.3870968 46.1290323,15.8064516 46.1290323,19.6774194 L57.5806452,19.6774194 Z M38.7096774,22.0967742 C38.7096774,12.2580645 43.5483871,7.41935484 51.9354839,7.41935484 C60.8064516,7.41935484 65,12.7419355 65,22.7419355 C65,23.3870968 65,24.0322581 64.8387097,24.8387097 L46.2903226,24.8387097 C46.6129032,28.7096774 49.1935484,30.3225806 52.7419355,30.3225806 C55,30.3225806 57.0967742,29.516129 59.1935484,27.4193548 L63.5483871,31.4516129 C61.1290323,34.6774194 57.2580645,36.7741935 52.5806452,36.7741935 C43.0645161,36.6129032 38.7096774,31.2903226 38.7096774,22.0967742 Z"></path>
                        <path d="M20.6451613,7.90322581 L28.5483871,7.90322581 L28.5483871,13.5483871 C30.1612903,9.67741935 32.5806452,7.09677419 37.5806452,7.41935484 L37.5806452,15.8064516 L37.0967742,15.8064516 C31.7741935,15.8064516 28.5483871,19.0322581 28.5483871,25.8064516 L28.5483871,36.1290323 L20.6451613,36.1290323 C20.6451613,36.1290323 20.6451613,7.90322581 20.6451613,7.90322581 Z"></path>
                        <path d="M3.38709677,28.0645161 L3.38709677,14.6774194 L0.322580645,14.6774194 L0.322580645,7.90322581 L3.38709677,7.90322581 L3.38709677,0.161290323 L11.2903226,0.161290323 L11.2903226,7.90322581 L16.2903226,7.90322581 L16.2903226,14.6774194 L11.2903226,14.6774194 L11.2903226,26.7741935 C11.2903226,28.7096774 12.4193548,29.516129 14.1935484,29.516129 C15.6451613,29.516129 17.0967742,29.1935484 18.3870968,28.5483871 L18.3870968,35 C16.7741935,35.9677419 14.3548387,36.6129032 11.6129032,36.6129032 C6.77419355,36.4516129 3.38709677,34.516129 3.38709677,28.0645161 Z"></path>
                    </g>
                </g>
                <g id="Group">
                    <polygon id="Shape" fill="#B48D78" points="72.9032258 59.6774194 72.9032258 9.19354839 56.1290323 0.161290323 40.9677419 7.58064516 40.9677419 56.6129032 0 73.0645161 0 90.8064516 21.4516129 96.6129032 54.1935484 83.3870968 99.6774194 98.7096774 112.096774 91.7741935 112.096774 74.6774194"></polygon>
                    <polygon id="Shape" fill="#FFFFFF" points="1.12903226 91.1290323 0 90.8064516 0 90 0 90 55.483871 68.0645161 55.3225806 0.483870968 56.1290323 0.161290323 56.7741935 0.483870968 56.7741935 69.0322581"></polygon>
                    <polygon id="Shape" fill="#FFFFFF" points="69.3548387 77.4193548 54.1935484 83.3870968 56.2903226 84.1935484 69.3548387 78.8709677 110.483871 92.5806452 112.096774 91.7741935"></polygon>
                </g>
            </g>
        </g>
    </g>
</svg>