<?xml version="1.0" encoding="UTF-8"?>
<svg width="300px" height="200px" viewBox="0 0 300 200" version="1.1" xmlns="http://www.w3.org/2000/svg" xmlns:xlink="http://www.w3.org/1999/xlink">
    <!-- Generator: Sketch 48.2 (47327) - http://www.bohemiancoding.com/sketch -->
    <title>suppliers</title>
    <desc>Created with Sketch.</desc>
    <defs></defs>
    <g id="Page-1" stroke="none" stroke-width="1" fill="none" fill-rule="evenodd">
        <g id="suppliers">
            <g id="logo-westwood" transform="translate(0.000000, 43.000000)">
                <g id="Group" transform="translate(124.083770, 95.811518)" fill="#181715" fill-rule="nonzero">
                    <path d="M9.98795812,14.7015707 L8.56020942,13.2753927 C7.78272251,13.8706806 6.82617801,14.1769634 5.79581152,14.1769634 C4.51256545,14.1769634 3.37382199,13.7073298 2.50680628,12.8403141 C1.29581152,11.6293194 1.29581152,10.3649215 1.29581152,7.63664921 C1.29581152,4.90837696 1.29581152,3.64240838 2.50680628,2.43298429 C3.37382199,1.56596859 4.51256545,1.0947644 5.79581152,1.0947644 C7.07905759,1.0947644 8.21780105,1.56596859 9.08481675,2.43298429 C10.2958115,3.64397906 10.2958115,4.90837696 10.2958115,7.63664921 C10.2958115,10.0931937 10.2958115,11.3591623 9.40994764,12.4617801 L10.8188482,13.8691099 L9.98795812,14.7015707 Z M8.01832461,3.24502618 C7.4591623,2.66701571 6.64397906,2.32303665 5.79581152,2.32303665 C4.9460733,2.32303665 4.13246073,2.66701571 3.57329843,3.24502618 C2.75968586,4.07591623 2.66858639,4.94293194 2.66858639,7.63664921 C2.66858639,10.3303665 2.75968586,11.1973822 3.57329843,12.0267016 C4.13246073,12.6062827 4.9460733,12.9502618 5.79581152,12.9502618 C6.48219895,12.9502618 7.09633508,12.7319372 7.62094241,12.334555 L5.99371728,10.7073298 L6.82460733,9.87801047 L8.39685864,11.4502618 C8.86649215,10.691623 8.91989529,9.6973822 8.91989529,7.63664921 C8.92303665,4.94293194 8.83193717,4.07591623 8.01832461,3.24502618 Z" id="Shape"></path>
                    <path d="M19.0554974,14.0701571 L19.0554974,13.0759162 C18.4225131,13.8 17.5366492,14.1769634 16.5424084,14.1769634 C15.5858639,14.1769634 14.7895288,13.8879581 14.247644,13.347644 C13.6146597,12.7319372 13.3445026,11.882199 13.3445026,10.8534031 L13.3445026,5.18010471 L14.6450262,5.18010471 L14.6450262,10.6554974 C14.6450262,12.226178 15.4759162,13.0209424 16.8141361,13.0209424 C18.1507853,13.0209424 19.0366492,12.2073298 19.0366492,10.6554974 L19.0366492,5.18010471 L20.3387435,5.18010471 L20.3387435,14.0701571 L19.0554974,14.0701571 Z" id="Shape"></path>
                    <path d="M28.7905759,14.0701571 L28.7905759,13.2204188 C28.0680628,13.9445026 27.417801,14.1769634 26.2240838,14.1769634 C24.9958115,14.1769634 24.2732984,13.9445026 23.7125654,13.3633508 C23.2790576,12.9314136 23.0434555,12.2623037 23.0434555,11.5570681 C23.0434555,10.0036649 24.1272251,8.9921466 26.1157068,8.9921466 L28.7890052,8.9921466 L28.7890052,8.14240838 C28.7890052,6.84188482 28.1387435,6.19162304 26.513089,6.19162304 C25.3743455,6.19162304 24.7963351,6.4617801 24.2717277,7.20314136 L23.3874346,6.3895288 C24.182199,5.36073298 25.0853403,5.07015707 26.5319372,5.07015707 C28.917801,5.07015707 30.0926702,6.09895288 30.0926702,8.03403141 L30.0926702,14.0701571 L28.7905759,14.0701571 Z M28.7905759,9.96753927 L26.2963351,9.96753927 C24.9596859,9.96753927 24.3094241,10.5094241 24.3094241,11.5382199 C24.3094241,12.5685864 24.9408377,13.0570681 26.3513089,13.0570681 C27.1099476,13.0570681 27.7790576,13.0036649 28.3397906,12.4617801 C28.6460733,12.1712042 28.7905759,11.665445 28.7905759,10.9240838 L28.7905759,9.96753927 Z" id="Shape"></path>
                    <path d="M35.6340314,14.0701571 C34.0806283,14.0701571 33.3753927,13.0570681 33.3753927,11.7015707 L33.3753927,1.20314136 L34.6759162,1.20314136 L34.6759162,11.6481675 C34.6759162,12.5151832 34.9664921,12.9486911 35.8696335,12.9486911 L36.5732984,12.9486911 L36.5732984,14.0685864 L35.6340314,14.0685864 L35.6340314,14.0701571 Z" id="Shape"></path>
                    <path d="M38.8664921,2.64816754 L38.8664921,1.18429319 L40.3303665,1.18429319 L40.3303665,2.64816754 L38.8664921,2.64816754 Z M38.9387435,14.0701571 L38.9387435,5.18010471 L40.2408377,5.18010471 L40.2408377,14.0701571 L38.9387435,14.0701571 Z" id="Shape"></path>
                    <path d="M46.1638743,14.0701571 C44.6450262,14.0701571 43.8879581,13.0036649 43.8879581,11.6842932 L43.8879581,6.22617801 L42.7664921,6.22617801 L42.7664921,5.23193717 L43.8879581,5.23193717 L43.8879581,2.4486911 L45.1884817,2.4486911 L45.1884817,5.23193717 L47.0858639,5.23193717 L47.0858639,6.22617801 L45.1884817,6.22617801 L45.1884817,11.6481675 C45.1884817,12.4617801 45.5670157,12.9486911 46.3994764,12.9486911 L47.0874346,12.9486911 L47.0874346,14.0685864 L46.1638743,14.0685864 L46.1638743,14.0701571 Z" id="Shape"></path>
                    <path d="M54.7256545,14.0701571 L54.7256545,13.2204188 C54.0031414,13.9445026 53.3528796,14.1769634 52.1591623,14.1769634 C50.9308901,14.1769634 50.208377,13.9445026 49.647644,13.3633508 C49.2141361,12.9314136 48.978534,12.2623037 48.978534,11.5570681 C48.978534,10.0036649 50.0623037,8.9921466 52.0507853,8.9921466 L54.7240838,8.9921466 L54.7240838,8.14240838 C54.7240838,6.84188482 54.073822,6.19162304 52.4481675,6.19162304 C51.3094241,6.19162304 50.7314136,6.4617801 50.2068063,7.20314136 L49.3225131,6.3895288 C50.1172775,5.36073298 51.0204188,5.07015707 52.4670157,5.07015707 C54.8528796,5.07015707 56.0277487,6.09895288 56.0277487,8.03403141 L56.0277487,14.0701571 L54.7256545,14.0701571 Z M50.0465969,3.19162304 L50.0465969,1.58324607 L51.3471204,1.58324607 L51.3471204,3.19162304 L50.0465969,3.19162304 Z M54.7256545,9.96753927 L52.2314136,9.96753927 C50.8947644,9.96753927 50.2445026,10.5094241 50.2445026,11.5382199 C50.2445026,12.5685864 50.8759162,13.0570681 52.2863874,13.0570681 C53.0450262,13.0570681 53.7141361,13.0036649 54.2748691,12.4617801 C54.5811518,12.1712042 54.7256545,11.665445 54.7256545,10.9240838 L54.7256545,9.96753927 Z M53.8774869,3.19162304 L53.8774869,1.58324607 L55.1780105,1.58324607 L55.1780105,3.19162304 L53.8774869,3.19162304 Z" id="Shape"></path>
                    <path d="M61.8424084,14.0701571 C60.3251309,14.0701571 59.5664921,13.0036649 59.5664921,11.6842932 L59.5664921,6.22617801 L58.4450262,6.22617801 L58.4450262,5.23193717 L59.5664921,5.23193717 L59.5664921,2.4486911 L60.8670157,2.4486911 L60.8670157,5.23193717 L62.7643979,5.23193717 L62.7643979,6.22617801 L60.8670157,6.22617801 L60.8670157,11.6481675 C60.8670157,12.4617801 61.2455497,12.9486911 62.0780105,12.9486911 L62.7659686,12.9486911 L62.7659686,14.0685864 L61.8424084,14.0685864 L61.8424084,14.0701571 Z" id="Shape"></path>
                    <polygon id="Shape" points="73.8706806 9.84031414 73.8706806 13.0193717 72.6596859 13.0193717 72.6596859 9.84031414 69.4806283 9.84031414 69.4806283 8.62931937 72.6596859 8.62931937 72.6596859 5.48481675 73.8706806 5.48481675 73.8706806 8.62931937 77.0340314 8.62931937 77.0340314 9.84031414"></polygon>
                    <polygon id="Shape" points="84.6518325 14.0701571 84.6518325 1.20471204 92.6387435 1.20471204 92.6387435 2.43298429 86.026178 2.43298429 86.026178 6.96910995 91.6633508 6.96910995 91.6633508 8.1973822 86.026178 8.1973822 86.026178 12.8418848 92.6387435 12.8418848 92.6387435 14.0701571 84.6518325 14.0701571"></polygon>
                    <path d="M100.38534,6.87643979 C99.8968586,6.38795812 99.5356021,6.22617801 98.8507853,6.22617801 C97.5471204,6.22617801 96.7193717,7.25497382 96.7193717,8.61204188 L96.7193717,14.0701571 L95.4157068,14.0701571 L95.4157068,5.18010471 L96.7193717,5.18010471 L96.7193717,6.26230366 C97.2078534,5.52251309 98.1832461,5.07015707 99.2104712,5.07015707 C100.060209,5.07015707 100.710471,5.26806283 101.345026,5.90104712 L100.38534,6.87643979 Z" id="Shape"></path>
                    <path d="M104.775393,6.22617801 L104.775393,14.0685864 L103.474869,14.0685864 L103.474869,6.22617801 L102.336126,6.22617801 L102.336126,5.23193717 L103.474869,5.23193717 L103.474869,3.55287958 C103.474869,2.23350785 104.21466,1.16544503 105.733508,1.16544503 L106.672775,1.16544503 L106.672775,2.28534031 L105.970681,2.28534031 C105.139791,2.28534031 104.776963,2.77382199 104.776963,3.58743455 L104.776963,5.23193717 L106.672775,5.23193717 L106.672775,6.22617801 L104.775393,6.22617801 Z" id="Shape"></path>
                    <path d="M113.717277,14.0701571 L113.717277,13.2204188 C112.993194,13.9445026 112.342932,14.1769634 111.149215,14.1769634 C109.922513,14.1769634 109.198429,13.9445026 108.639267,13.3633508 C108.204188,12.9314136 107.970157,12.2623037 107.970157,11.5570681 C107.970157,10.0036649 109.052356,8.9921466 111.040838,8.9921466 L113.715707,8.9921466 L113.715707,8.14240838 C113.715707,6.84188482 113.065445,6.19162304 111.439791,6.19162304 C110.301047,6.19162304 109.721466,6.4617801 109.196859,7.20314136 L108.314136,6.3895288 C109.108901,5.36073298 110.010471,5.07015707 111.458639,5.07015707 C113.842932,5.07015707 115.017801,6.09895288 115.017801,8.03403141 L115.017801,14.0701571 L113.717277,14.0701571 Z M113.717277,9.96753927 L111.223037,9.96753927 C109.884817,9.96753927 109.234555,10.5094241 109.234555,11.5382199 C109.234555,12.5685864 109.865969,13.0570681 111.27801,13.0570681 C112.035079,13.0570681 112.704188,13.0036649 113.266492,12.4617801 C113.572775,12.1712042 113.717277,11.665445 113.717277,10.9240838 L113.717277,9.96753927 Z" id="Shape"></path>
                    <path d="M124.031937,14.0701571 L124.031937,8.57591623 C124.031937,7.02408377 123.201047,6.22774869 121.862827,6.22774869 C120.524607,6.22774869 119.641885,7.04136126 119.641885,8.57591623 L119.641885,14.0701571 L118.33822,14.0701571 L118.33822,1.20471204 L119.641885,1.20471204 L119.641885,6.15549738 C120.292147,5.41413613 121.138743,5.07172775 122.132984,5.07172775 C124.138743,5.07172775 125.332461,6.35497382 125.332461,8.36073298 L125.332461,14.0717277 L124.031937,14.0717277 L124.031937,14.0701571 Z" id="Shape"></path>
                    <path d="M133.620942,6.87643979 C133.132461,6.38795812 132.771204,6.22617801 132.086387,6.22617801 C130.782723,6.22617801 129.954974,7.25497382 129.954974,8.61204188 L129.954974,14.0701571 L128.651309,14.0701571 L128.651309,5.18010471 L129.954974,5.18010471 L129.954974,6.26230366 C130.443455,5.52251309 131.418848,5.07015707 132.446073,5.07015707 C133.295812,5.07015707 133.946073,5.26806283 134.580628,5.90104712 L133.620942,6.87643979 Z" id="Shape"></path>
                    <path d="M142.039791,14.0701571 L142.039791,13.0759162 C141.408377,13.8 140.524084,14.1769634 139.529843,14.1769634 C138.570157,14.1769634 137.775393,13.8879581 137.231937,13.347644 C136.600524,12.7319372 136.330366,11.882199 136.330366,10.8534031 L136.330366,5.18010471 L137.63089,5.18010471 L137.63089,10.6554974 C137.63089,12.226178 138.46178,13.0209424 139.8,13.0209424 C141.13822,13.0209424 142.020942,12.2073298 142.020942,10.6554974 L142.020942,5.18010471 L143.324607,5.18010471 L143.324607,14.0701571 L142.039791,14.0701571 Z" id="Shape"></path>
                    <path d="M152.426702,14.0701571 L152.426702,8.5947644 C152.426702,7.02408377 151.576963,6.22774869 150.238743,6.22774869 C148.900524,6.22774869 148.036649,7.04136126 148.036649,8.5947644 L148.036649,14.0701571 L146.732984,14.0701571 L146.732984,5.18010471 L148.036649,5.18010471 L148.036649,6.15549738 C148.668063,5.43141361 149.533508,5.07172775 150.527749,5.07172775 C151.487435,5.07172775 152.263351,5.36230366 152.806806,5.9026178 C153.43822,6.51832461 153.727225,7.34921466 153.727225,8.37801047 L153.727225,14.0701571 L152.426702,14.0701571 Z" id="Shape"></path>
                    <path d="M159.903141,18.152356 C158.564921,18.152356 157.826702,17.808377 156.884293,16.9602094 L157.734031,16.1293194 C158.384293,16.7073298 158.83822,17.0136126 159.865445,17.0136126 C161.58377,17.0136126 162.307853,15.8026178 162.307853,14.286911 L162.307853,12.8937173 C161.58377,13.8157068 160.770157,14.0497382 159.813613,14.0497382 C158.908901,14.0497382 158.132984,13.7246073 157.663351,13.2549738 C156.777487,12.3691099 156.57801,10.9963351 156.57801,9.54973822 C156.57801,8.10471204 156.777487,6.73193717 157.663351,5.84764398 C158.132984,5.37643979 158.927749,5.07015707 159.832461,5.07015707 C160.807853,5.07015707 161.602618,5.28691099 162.32356,6.22617801 L162.32356,5.17853403 L163.608377,5.17853403 L163.608377,14.3387435 C163.608377,16.5455497 162.234031,18.152356 159.903141,18.152356 Z M160.102618,6.22617801 C158.170681,6.22617801 157.878534,7.8895288 157.878534,9.54973822 C157.878534,11.213089 158.170681,12.8748691 160.102618,12.8748691 C162.034555,12.8748691 162.307853,11.2115183 162.307853,9.54973822 C162.307853,7.8895288 162.034555,6.22617801 160.102618,6.22617801 Z" id="Shape"></path>
                </g>
                <g id="Group" transform="translate(120.942408, 56.544503)" fill="#181715" fill-rule="nonzero">
                    <polygon id="Shape" points="24.6596859 27.9172775 22.0225131 27.9172775 16.1528796 6.74450262 10.2832461 27.9172775 7.6460733 27.9172775 0.884293194 1.46858639 3.89371728 1.46858639 9.05811518 22.7905759 14.8900524 1.46858639 17.4157068 1.46858639 23.247644 22.7905759 28.4120419 1.46858639 31.421466 1.46858639"></polygon>
                    <path d="M35.5429319,19.4858639 C35.5429319,23.4973822 37.4371728,25.8015707 40.9287958,25.8015707 C43.047644,25.8015707 44.2727749,25.1701571 45.7209424,23.7219895 L47.5413613,25.3193717 C45.6832461,27.1774869 43.9743455,28.1434555 40.8549738,28.1434555 C36.0251309,28.1434555 32.8680628,25.2455497 32.8680628,18.7806283 C32.8680628,12.8748691 35.7282723,9.42094241 40.3712042,9.42094241 C45.0895288,9.42094241 47.8743455,12.8387435 47.8743455,18.2623037 L47.8743455,19.4874346 L35.5429319,19.4874346 L35.5429319,19.4858639 Z M44.6434555,14.4329843 C43.9382199,12.7617801 42.3031414,11.6842932 40.3712042,11.6842932 C38.439267,11.6842932 36.8041885,12.7617801 36.0989529,14.4329843 C35.6890052,15.4366492 35.6151832,15.9926702 35.5429319,17.478534 L45.1994764,17.478534 C45.1256545,15.9926702 45.0534031,15.4366492 44.6434555,14.4329843 Z" id="Shape"></path>
                    <path d="M59.3167539,28.1418848 C56.2319372,28.1418848 53.817801,27.4366492 51.8120419,25.5031414 L53.5963351,23.7204188 C55.0445026,25.2439791 57.0141361,25.8376963 59.2790576,25.8376963 C62.2884817,25.8376963 64.1465969,24.7602094 64.1465969,22.6052356 C64.1465969,21.0078534 63.2183246,20.1157068 61.1010471,19.9319372 L58.091623,19.6712042 C54.5246073,19.3743455 52.6303665,17.7769634 52.6303665,14.7675393 C52.6303665,11.4251309 55.4544503,9.41937173 59.3544503,9.41937173 C61.9539267,9.41937173 64.2958115,10.0507853 65.9308901,11.3874346 L64.1842932,13.1340314 C62.8853403,12.1303665 61.2125654,11.6842932 59.3183246,11.6842932 C56.6434555,11.6842932 55.2314136,12.8356021 55.2314136,14.6921466 C55.2314136,16.2534031 56.1219895,17.1832461 58.4246073,17.3670157 L61.3602094,17.6277487 C64.5534031,17.9246073 66.7460733,19.1513089 66.7460733,22.5691099 C66.7445026,26.0984293 63.7366492,28.1418848 59.3167539,28.1418848 Z" id="Shape"></path>
                    <path d="M76.7371728,27.9172775 C73.6162304,27.9172775 72.0565445,25.726178 72.0565445,23.0151832 L72.0565445,11.7958115 L69.7539267,11.7958115 L69.7539267,9.75235602 L72.0565445,9.75235602 L72.0565445,4.03036649 L74.7314136,4.03036649 L74.7314136,9.75235602 L78.6314136,9.75235602 L78.6314136,11.7958115 L74.7314136,11.7958115 L74.7314136,22.9397906 C74.7314136,24.6109948 75.5120419,25.6146597 77.2209424,25.6146597 L78.6314136,25.6146597 L78.6314136,27.9172775 L76.7371728,27.9172775 Z" id="Shape"></path>
                    <polygon id="Shape" points="104.968586 27.9172775 102.331414 27.9172775 96.4617801 6.74450262 90.5937173 27.9172775 87.9549738 27.9172775 81.1931937 1.46858639 84.2026178 1.46858639 89.3670157 22.7905759 95.1989529 1.46858639 97.7246073 1.46858639 103.556545 22.7905759 108.720942 1.46858639 111.728796 1.46858639"></polygon>
                    <path d="M125.921466,26.060733 C124.657068,27.3235602 122.912042,28.1403141 120.683246,28.1403141 C118.45445,28.1403141 116.709424,27.3219895 115.445026,26.060733 C113.586911,24.1649215 113.21623,21.6031414 113.21623,18.7774869 C113.21623,15.9549738 113.586911,13.391623 115.445026,11.4973822 C116.709424,10.2329843 118.45445,9.41780105 120.683246,9.41780105 C122.912042,9.41780105 124.657068,10.234555 125.921466,11.4973822 C127.779581,13.391623 128.150262,15.9549738 128.150262,18.7774869 C128.150262,21.6031414 127.779581,24.1649215 125.921466,26.060733 Z M124.027225,13.1340314 C123.172775,12.2780105 121.98377,11.7958115 120.683246,11.7958115 C119.382723,11.7958115 118.231414,12.2780105 117.378534,13.1340314 C116.040314,14.4722513 115.89267,16.7356021 115.89267,18.7790576 C115.89267,20.8225131 116.041885,23.0890052 117.378534,24.4272251 C118.232984,25.2816754 119.382723,25.765445 120.683246,25.765445 C121.98377,25.765445 123.172775,25.2816754 124.027225,24.4272251 C125.365445,23.0890052 125.475393,20.8225131 125.475393,18.7790576 C125.475393,16.7356021 125.363874,14.4706806 124.027225,13.1340314 Z" id="Shape"></path>
                    <path d="M145.608377,26.060733 C144.343979,27.3235602 142.598953,28.1403141 140.370157,28.1403141 C138.141361,28.1403141 136.396335,27.3219895 135.131937,26.060733 C133.273822,24.1649215 132.903141,21.6031414 132.903141,18.7774869 C132.903141,15.9549738 133.273822,13.391623 135.131937,11.4973822 C136.396335,10.2329843 138.141361,9.41780105 140.370157,9.41780105 C142.598953,9.41780105 144.343979,10.234555 145.608377,11.4973822 C147.466492,13.391623 147.837173,15.9549738 147.837173,18.7774869 C147.837173,21.6031414 147.466492,24.1649215 145.608377,26.060733 Z M143.714136,13.1340314 C142.859686,12.2780105 141.670681,11.7958115 140.370157,11.7958115 C139.069634,11.7958115 137.918325,12.2780105 137.063874,13.1340314 C135.727225,14.4722513 135.579581,16.7356021 135.579581,18.7790576 C135.579581,20.8225131 135.728796,23.0890052 137.063874,24.4272251 C137.919895,25.2816754 139.069634,25.765445 140.370157,25.765445 C141.670681,25.765445 142.859686,25.2816754 143.714136,24.4272251 C145.052356,23.0890052 145.162304,20.8225131 145.162304,18.7790576 C145.162304,16.7356021 145.052356,14.4706806 143.714136,13.1340314 Z" id="Shape"></path>
                    <path d="M164.478534,27.9172775 L164.478534,25.726178 C162.99267,27.6565445 161.28377,28.1403141 159.27644,28.1403141 C157.418325,28.1403141 155.784817,27.5089005 154.818848,26.5413613 C152.960733,24.6848168 152.590052,21.639267 152.590052,18.7774869 C152.590052,15.9188482 152.960733,12.8717277 154.818848,11.0151832 C155.784817,10.0507853 157.418325,9.41780105 159.27644,9.41780105 C161.282199,9.41780105 162.954974,9.86230366 164.440838,11.7581152 L164.440838,1.46701571 L167.115707,1.46701571 L167.115707,27.9157068 L164.478534,27.9157068 L164.478534,27.9172775 Z M159.871728,11.7958115 C155.896335,11.7958115 155.264921,15.2136126 155.264921,18.7774869 C155.264921,22.3445026 155.894764,25.7623037 159.871728,25.7623037 C163.84555,25.7623037 164.440838,22.3445026 164.440838,18.7774869 C164.440838,15.2136126 163.84555,11.7958115 159.871728,11.7958115 Z" id="Shape"></path>
                </g>
                <path d="M294.821466,56.9623037 C297.043979,56.9623037 298.913089,58.7230366 298.913089,61.0539267 C298.913089,63.3863874 297.043979,65.1455497 294.821466,65.1455497 C292.587958,65.1455497 290.729843,63.3863874 290.729843,61.0539267 C290.729843,58.7230366 292.587958,56.9623037 294.821466,56.9623037 Z M294.821466,64.5549738 C296.692147,64.5549738 298.189005,63.0361257 298.189005,61.0539267 C298.189005,59.0748691 296.693717,57.5560209 294.821466,57.5560209 C292.941361,57.5560209 291.455497,59.0748691 291.455497,61.0539267 C291.457068,63.0361257 292.941361,64.5549738 294.821466,64.5549738 Z M295.768586,63.3 C295.636649,63.0471204 295.570681,62.9371728 295.394764,62.6277487 C295.042932,62.0450262 294.932984,61.8581152 294.603141,61.495288 C294.482199,61.3633508 294.383246,61.2958115 294.196335,61.2863874 L294.196335,63.2984293 L293.558639,63.2984293 L293.558639,58.7544503 L294.834031,58.7544503 C295.372775,58.7544503 295.691623,58.873822 295.911518,59.0842932 C296.120419,59.2712042 296.319895,59.5790576 296.319895,60.0188482 C296.319895,60.7240838 295.856545,61.2942408 295.099476,61.273822 C295.308377,61.4387435 295.418325,61.5816754 295.495288,61.691623 C295.59267,61.8141361 295.724607,62.0104712 295.878534,62.252356 C296.07801,62.5602094 296.451832,63.1539267 296.539791,63.2984293 L295.768586,63.2984293 L295.768586,63.3 Z M295.229843,59.360733 C295.097906,59.3057592 294.910995,59.2727749 294.66911,59.2727749 L294.196335,59.2727749 L294.196335,60.8575916 L294.634555,60.8575916 C295.042932,60.8575916 295.261257,60.7900524 295.426178,60.6486911 C295.559686,60.5151832 295.647644,60.295288 295.647644,60.0314136 C295.647644,59.7141361 295.471728,59.4596859 295.229843,59.360733 Z" id="Shape" fill="#181715" fill-rule="nonzero"></path>
                <path d="M56.5727749,0.161780105 L56.5727749,5.07329843 L61.0759162,0.161780105 L56.5727749,0.161780105 Z M13.317801,52.2565445 L46.0947644,16.5015707 L46.0947644,3.6078534 L1.49842932,52.2565445 L13.317801,52.2565445 Z" id="Shape" fill="#D6D8DB"></path>
                <rect id="Rectangle-path" fill="#858994" x="0.141361257" y="1.53298429" width="11.7942408" height="52.1167539"></rect>
                <polygon id="Shape" fill="#5D6271" points="13.308377 0.161780105 11.9356021 1.53298429 11.9356021 53.6497382 13.308377 52.2769634"></polygon>
                <polygon id="Shape" fill="#717582" points="13.308377 0.161780105 1.51413613 0.161780105 0.141361257 1.53298429 11.9356021 1.53298429"></polygon>
                <polygon id="Shape" fill="#D6D8DB" points="98.060733 0.161780105 50.3041885 52.2565445 62.1235602 52.2565445 109.880105 0.161780105"></polygon>
                <rect id="Rectangle-path" fill="#858994" x="48.9471204" y="1.53298429" width="11.7958115" height="52.1167539"></rect>
                <polygon id="Shape" fill="#5D6271" points="62.1141361 0.161780105 60.7413613 1.53298429 60.7413613 53.6497382 62.1141361 52.2769634"></polygon>
                <polygon id="Shape" fill="#717582" points="62.1141361 0.161780105 50.3198953 0.161780105 48.9471204 1.53298429 60.7413613 1.53298429"></polygon>
                <path d="M56.5727749,56.3905759 L56.5727749,61.3020942 L61.0759162,56.3905759 L56.5727749,56.3905759 Z M13.317801,108.486911 L46.0947644,72.7319372 L46.0947644,59.8366492 L1.49842932,108.486911 L13.317801,108.486911 Z" id="Shape" fill="#D6D8DB"></path>
                <rect id="Rectangle-path" fill="#494E5F" x="0.141361257" y="57.7633508" width="11.7942408" height="52.1183246"></rect>
                <polygon id="Shape" fill="#343A4D" points="13.308377 56.3905759 11.9356021 57.7633508 11.9356021 109.881675 13.308377 108.50733"></polygon>
                <polygon id="Shape" fill="#5D6271" points="13.308377 56.3905759 1.51413613 56.3905759 0.141361257 57.7633508 11.9356021 57.7633508"></polygon>
                <polygon id="Shape" fill="#D6D8DB" points="98.060733 56.3905759 50.3041885 108.486911 62.1235602 108.486911 109.880105 56.3905759"></polygon>
                <rect id="Rectangle-path" fill="#494E5F" x="48.9471204" y="57.7633508" width="11.7958115" height="52.1183246"></rect>
                <polygon id="Shape" fill="#343A4D" points="62.1141361 56.3905759 60.7413613 57.7633508 60.7413613 109.881675 62.1141361 108.50733"></polygon>
                <polygon id="Shape" fill="#5D6271" points="62.1141361 56.3905759 50.3198953 56.3905759 48.9471204 57.7633508 60.7413613 57.7633508"></polygon>
            </g>
        </g>
    </g>
</svg>